<svg id="meincken" data-name="Layer 1" xmlns="http://www.w3.org/2000/svg" viewBox="0 0 327.13 64.93">
  <title>logo</title>
  <path d="M601.56,303.33l-8.76-30.85h-.26q.62,7.89.61,12.25v18.6H582.9V260.5h15.41l8.94,30.41h.23l8.76-30.41h15.44v42.83H621V284.55c0-1,0-2.06.05-3.25s.16-4.11.39-8.76h-.26l-8.64,30.79Z" transform="translate(-562.86 -249.49)"/>
  <path d="M661.84,303.33H636.41V260.5h25.43v9.29H648v6.74h12.83v9.28H648v8.09h13.86Z" transform="translate(-562.86 -249.49)"/>
  <path d="M664.84,303.33V260.5h11.63v42.83Z" transform="translate(-562.86 -249.49)"/>
  <path d="M722,303.33H706.83l-15.64-30.17h-.27c.37,4.74.56,8.37.56,10.87v19.3H681.23V260.5h15.11l15.59,29.77h.18c-.28-4.32-.41-7.79-.41-10.4V260.5H722Z" transform="translate(-562.86 -249.49)"/>
  <path d="M745.84,269.38a7.4,7.4,0,0,0-6.45,3.38q-2.31,3.39-2.31,9.33,0,12.38,9.4,12.37a19.52,19.52,0,0,0,5.51-.79,56.5,56.5,0,0,0,5.36-1.91v9.79a29.7,29.7,0,0,1-12.13,2.37q-9.69,0-14.87-5.63T725.18,282a25.88,25.88,0,0,1,2.51-11.68,17.86,17.86,0,0,1,7.21-7.75A21.72,21.72,0,0,1,746,259.89a30.51,30.51,0,0,1,13.27,3L755.68,272a38.89,38.89,0,0,0-4.74-1.88A16.6,16.6,0,0,0,745.84,269.38Z" transform="translate(-562.86 -249.49)"/>
  <path d="M797.79,303.33H784.73L776.26,287,772.83,289v14.32H761.2V260.5h11.63v18.6a51.64,51.64,0,0,1,3.55-5.47l9-13.13H798l-13.51,19.19Z" transform="translate(-562.86 -249.49)"/>
  <path d="M823.35,303.33H797.92V260.5h25.43v9.29H809.49v6.74h12.84v9.28H809.49v8.09h13.86Z" transform="translate(-562.86 -249.49)"/>
  <path d="M867.13,303.33H852l-15.65-30.17h-.26c.37,4.74.56,8.37.56,10.87v19.3H826.35V260.5h15.12l15.58,29.77h.18q-.4-6.48-.41-10.4V260.5h10.31Z" transform="translate(-562.86 -249.49)"/>
  <path d="M580.41,314.43H562.86V249.49h17.55v8.93H574V305.5h6.4Z" transform="translate(-562.86 -249.49)"/>
  <path d="M872.41,305.5h6.4V258.42h-6.4v-8.93H890v64.94H872.41Z" transform="translate(-562.86 -249.49)"/>
</svg>
